<svg width="415" height="257" viewBox="0 0 415 257" fill="none" xmlns="http://www.w3.org/2000/svg">
<path d="M66.6714 224.127L-9 257H421.5L347.913 224.127H66.6714Z" fill="#8C96FF"/>
<path d="M180.7 163.005L166.404 186.115L193.826 218.519H221.478L247.258 185.567L231.299 163.005H180.7Z" fill="#3F4553"/>
<path d="M166.404 186.115C166.404 186.115 104.902 190.847 89.4743 206.875C74.0463 222.902 81.3048 240.305 96.3322 240.305C123.994 240.305 182.522 241.988 210.214 240.305L211.866 202.78L166.404 186.115Z" fill="#3F4553"/>
<path d="M245.666 185.318C245.666 185.318 310.07 190.847 325.498 206.875C340.926 222.902 332.036 233.521 318.64 240.305C299.789 249.858 231.84 248.274 196.599 236.669L203.116 202.78L245.666 185.318Z" fill="#3F4553"/>
<path d="M248.499 216.796L244.144 205.6L249.57 203.199C249.57 203.199 248.819 196.575 255.457 195.299C262.095 194.024 270.004 198.288 277.713 194.851C284.821 191.683 293.521 188.765 301.641 193.148C302.842 193.795 303.403 195.22 302.992 196.515L302.962 196.614C302.552 197.919 301.27 198.726 299.899 198.587C297.035 198.298 291.929 198.358 286.884 201.396C278.183 206.655 248.499 216.796 248.499 216.796Z" fill="#FEBBA0"/>
<path d="M299.168 217.434C299.168 217.434 256.188 209.833 165.653 208.658L156.913 220.452C156.913 220.452 179.439 233.262 200.583 237.894C221.728 242.526 294.723 257.11 327.321 234.647L299.168 217.434Z" fill="#3F4553"/>
<path d="M200.583 237.904C178.908 232.924 156.232 220.153 156.232 220.153L157.583 217.872" stroke="#6E758F" stroke-width="1.5925" stroke-miterlimit="10" stroke-linecap="round"/>
<path d="M165.653 208.658C165.653 208.658 265.118 206.396 291.659 221.717" stroke="#6E758F" stroke-width="1.5925" stroke-miterlimit="10" stroke-linecap="round"/>
<path d="M116.826 215.073C116.826 215.073 134.987 206.606 147.402 212.154" stroke="#6E758F" stroke-width="1.5925" stroke-miterlimit="10" stroke-linecap="round"/>
<path d="M159.005 218.5L165.643 208.439L159.005 204.862C159.005 204.862 156.682 199.075 150.175 197.282C143.657 195.499 139.022 198.378 131.603 194.353C124.765 190.638 116.315 187.061 107.886 190.797C106.644 191.345 105.963 192.719 106.274 194.044L106.294 194.144C106.604 195.479 107.816 196.375 109.187 196.345C112.061 196.276 117.156 196.734 121.942 200.161C130.202 206.078 159.005 218.5 159.005 218.5Z" fill="#FEBBA0"/>
<path d="M216.151 209.016L243.343 206.357" stroke="#6E758F" stroke-width="1.5925" stroke-miterlimit="10" stroke-linecap="round"/>
<path d="M181.571 197.292L196.739 208.219" stroke="#6E758F" stroke-width="1.5925" stroke-miterlimit="10" stroke-linecap="round"/>
<path d="M177.657 48.5784C178.297 54.8142 183.754 59.3566 189.841 58.739C195.928 58.1214 200.343 52.563 199.702 46.3371C199.062 40.1013 193.605 35.5589 187.518 36.1765C181.441 36.7842 177.026 42.3426 177.657 48.5784Z" fill="#3F4553"/>
<path d="M200.393 53.1108C200.393 53.1108 181.051 50.2021 178.007 32.0425C175.324 15.9948 186.147 3.13463 198.01 0.913246C198.02 0.913246 226.523 44.6238 200.393 53.1108Z" fill="#3F4553"/>
<path d="M200.834 2.63656C199.412 3.33386 198.06 4.25031 196.829 5.43571C185.806 15.9848 192.784 36.4654 202.656 45.7095C208.122 50.8197 216.111 53.2005 223.089 50.5906C233.291 46.7754 236.485 35.28 234.413 25.0397C232.871 17.4093 228.616 10.2072 222.339 5.72459C216.061 1.25193 207.581 -0.640727 200.834 2.63656Z" fill="#FDBCA0"/>
<path d="M199.001 39.5335C197.069 41.4361 193.705 42.2131 191.122 41.3066C188.539 40.4001 186.417 37.9795 185.746 35.1704C185.145 32.6502 185.796 29.7813 187.658 28.2373C189.52 26.6933 192.874 26.7929 194.466 28.7951L199.001 39.5335Z" fill="#FDBCA0"/>
<path d="M196.178 32.8394L198.211 69.0391C198.481 75.7331 203.937 81.0525 210.665 81.182C218.434 81.3414 224.531 74.5876 223.54 66.9173L219.435 33.3076L196.178 32.8394Z" fill="#FDBCA0"/>
<path d="M222.198 55.9996L221.688 51.0389C221.688 51.0389 211.676 54.097 202.656 45.6996C202.656 45.7095 207.852 55.143 222.198 55.9996Z" fill="#DF8370"/>
<path d="M192.204 27.3707C205.239 26.7032 217.133 17.997 223.7 6.7805C223.7 6.7805 211.706 -4.54559 194.176 2.07873C179.649 7.55748 192.204 27.3707 192.204 27.3707Z" fill="#3F4553"/>
<path d="M193.635 35.6984C192.133 35.8478 190.822 35.0409 190.702 33.8953C190.612 33.0287 191.222 32.2218 192.164 31.8035" stroke="#444359" stroke-width="1.1144" stroke-miterlimit="10" stroke-linecap="round"/>
<path d="M224.952 32.8693C225.252 31.9628 225.773 31.2456 226.353 30.5683L226.634 31.4449C225.973 31.1958 225.612 30.8173 225.242 30.4487C224.892 30.0602 224.581 29.6717 224.301 29.2534C223.74 28.4266 223.27 27.55 222.929 26.6236C223.63 27.3308 224.271 28.058 224.942 28.7553C225.282 29.094 225.602 29.4426 225.953 29.7415C226.283 30.0303 226.674 30.3292 226.944 30.3989L227.755 30.5882L227.224 31.2755C226.684 31.9828 226.083 32.6402 225.252 33.1184C225.152 33.1781 225.032 33.1383 224.972 33.0486C224.942 32.9789 224.942 32.9191 224.952 32.8693Z" fill="#444359"/>
<path d="M227.885 36.037C227.485 36.8539 226.804 37.5611 225.923 37.9895C225.052 38.4377 223.971 38.5274 223.009 38.2485C222.028 37.9795 221.267 37.342 220.617 36.6845C220.326 36.3259 220.036 35.9574 219.796 35.5788C219.585 35.1704 219.365 34.772 219.205 34.3536C219.575 34.6325 219.896 34.9313 220.216 35.2302L221.207 36.047C221.908 36.5052 222.569 37.0033 223.33 37.1826C224.061 37.4117 224.842 37.4018 225.612 37.1926C226.373 36.9734 227.134 36.5451 227.885 36.037Z" fill="#444359"/>
<path d="M217.403 23.0175C217.793 24.1731 218.014 25.3684 217.933 26.6534C217.883 27.281 217.733 27.9683 217.263 28.576C216.782 29.1936 215.971 29.4625 215.26 29.4426C214.53 29.4327 213.809 29.1139 213.318 28.6656C212.808 28.2174 212.407 27.6994 212.107 27.1515C211.506 26.0458 211.126 24.8903 210.935 23.675C210.905 23.4857 211.035 23.3064 211.226 23.2666C211.406 23.2367 211.566 23.3463 211.616 23.5056L211.626 23.5256C211.967 24.6014 212.417 25.6872 212.998 26.6235C213.578 27.53 214.369 28.3668 215.3 28.3369C215.761 28.3568 216.191 28.2373 216.452 27.9086C216.742 27.5898 216.882 27.0718 216.962 26.5439C217.113 25.478 217.012 24.3025 216.832 23.1769V23.157C216.802 22.9976 216.922 22.8382 217.082 22.8183C217.213 22.7984 217.353 22.888 217.403 23.0175Z" fill="#444359"/>
<path d="M231.94 20.7563C232.27 21.7325 232.45 22.7287 232.43 23.7945C232.42 24.3225 232.32 24.9002 231.98 25.4481C231.649 26.0259 230.909 26.3845 230.268 26.3546C229.597 26.3446 228.986 25.996 228.596 25.5876C228.195 25.1692 227.885 24.7209 227.655 24.2428C227.204 23.2865 226.924 22.3103 226.784 21.2843C226.754 21.095 226.894 20.9157 227.094 20.8858C227.264 20.8659 227.425 20.9655 227.475 21.1249L227.485 21.1448C227.775 22.0413 228.125 22.9578 228.576 23.7547C229.026 24.5317 229.637 25.2788 230.308 25.2389C230.648 25.2489 230.919 25.1493 231.099 24.8703C231.299 24.5914 231.399 24.1631 231.459 23.7148C231.559 22.8183 231.479 21.8321 231.369 20.8958V20.8758C231.349 20.7165 231.469 20.567 231.629 20.5372C231.76 20.5372 231.9 20.6268 231.94 20.7563Z" fill="#444359"/>
<path d="M242.752 72.3263C242.662 66.2499 222.859 61.3887 222.859 61.3887C221.618 62.7534 219.485 65.0545 210.505 65.0545C201.915 65.0545 198.481 62.8431 197.139 61.3887H188.639C186.747 61.3887 185.015 62.4646 184.224 64.1779C167.195 101.244 176.766 142.644 180.69 162.995C181.051 164.867 216.592 163.602 232.621 164.867C236.085 165.156 243.093 94.4107 242.752 72.3263Z" fill="#FEE6C6"/>
<path d="M201.394 124.743C203.156 110.578 205.309 102.081 206.961 104.87C208.422 107.341 207.612 119.732 205.419 131.686C205.429 131.686 200.643 130.81 201.394 124.743Z" fill="#FEBBA0"/>
<path d="M213.028 124.743C211.266 110.578 209.113 102.081 207.461 104.87C206 107.341 206.811 119.732 209.003 131.686C208.993 131.686 213.779 130.81 213.028 124.743Z" fill="#FEBBA0"/>
<path d="M271.716 121.227H249.34L252.894 143.839L212.287 124.125C212.147 122.611 211.957 120.739 211.726 118.756C210.194 118.756 208.653 118.756 207.121 118.736C207.131 120.46 207.161 121.625 207.161 121.625C207.161 121.625 206.37 132.025 208.182 135.491C211.626 142.086 246.857 163.323 256.638 165.844C257.249 166.003 257.86 166.123 258.471 166.202C267.912 167.527 274.169 162.258 274.099 152.774L271.716 121.227Z" fill="#FEBBA0"/>
<path d="M202.295 118.657C201.945 120.888 201.635 123.04 201.394 124.743L161.958 142.913L163.62 121.237H141.244L138.872 152.804C138.812 162.287 145.069 167.547 154.5 166.232C155.111 166.143 155.721 166.023 156.332 165.874C166.113 163.353 198.881 145.732 205.879 135.452C207.952 132.413 206.971 122.183 206.971 122.183C206.971 122.183 206.971 120.768 206.931 118.756C205.389 118.726 203.847 118.697 202.295 118.657Z" fill="#FEBBA0"/>
<path d="M169.347 133.599C178.097 107.849 178.027 107.829 188.77 61.3987C181.581 61.8868 180.84 60.7213 175.174 63.65C158.174 72.4359 142.165 101.294 137.45 133.599H169.347Z" fill="#FEE6C6"/>
<path d="M247.258 131.059C242.112 112.819 222.859 61.3987 222.859 61.3987C242.112 60.7512 268.382 85.7244 274.669 127.722L247.258 131.059Z" fill="#FEE6C6"/>
<path d="M242.762 90.7847L238.708 123.936" stroke="#EED2AD" stroke-width="1.5925" stroke-miterlimit="10" stroke-linecap="round"/>
<path d="M173.031 96.2237L176.255 131.686" stroke="#EED2AD" stroke-width="1.5925" stroke-miterlimit="10" stroke-linecap="round"/>
</svg>
